<svg id="coin" xmlns="http://www.w3.org/2000/svg" width="14.464" height="14.464" viewBox="0 0 14.464 14.464">
  <path id="Path_1112" data-name="Path 1112" d="M7.232,0a7.232,7.232,0,1,0,7.232,7.232A7.24,7.24,0,0,0,7.232,0Zm0,13.513a6.28,6.28,0,1,1,6.28-6.28A6.288,6.288,0,0,1,7.232,13.513Z" fill="#fff"/>
  <path id="Path_1113" data-name="Path 1113" d="M75.008,32.628v-2.7a1.369,1.369,0,0,1,.668.532.476.476,0,1,0,.795-.523,2.316,2.316,0,0,0-1.463-1v-.756a.476.476,0,0,0-.952,0v.755a2.322,2.322,0,0,0,0,4.545v2.7a1.369,1.369,0,0,1-.668-.532.476.476,0,1,0-.795.523,2.316,2.316,0,0,0,1.463,1v.756a.476.476,0,0,0,.952,0v-.755a2.322,2.322,0,0,0,0-4.545Zm-1.847-1.419a1.371,1.371,0,0,1,.9-1.283v2.566A1.371,1.371,0,0,1,73.161,31.209Zm1.847,4.974V33.617a1.367,1.367,0,0,1,0,2.566Z" transform="translate(-67.3 -25.822)" fill="#fff"/>
</svg>
