<svg xmlns="http://www.w3.org/2000/svg" width="13.617" height="10.699" viewBox="0 0 13.617 10.699">
  <g id="envelope_2_" data-name="envelope (2)" transform="translate(0 0)">
    <g id="Group_936" data-name="Group 936" transform="translate(0 0)">
      <path id="Path_188" data-name="Path 188" d="M1.307,58.118q.258.182,1.558,1.083t1.991,1.387l.323.232q.247.179.41.289t.4.247a2.292,2.292,0,0,0,.437.2,1.2,1.2,0,0,0,.38.068h.015a1.2,1.2,0,0,0,.38-.068,2.3,2.3,0,0,0,.437-.2q.232-.137.4-.247t.41-.289q.247-.179.323-.232l3.556-2.47a3.61,3.61,0,0,0,.927-.935,2.007,2.007,0,0,0,.372-1.147A1.226,1.226,0,0,0,12.4,54.82H1.216a1.085,1.085,0,0,0-.9.4A1.534,1.534,0,0,0,0,56.2,1.775,1.775,0,0,0,.418,57.24,3.772,3.772,0,0,0,1.307,58.118Z" transform="translate(0 -54.82)" fill="#ffc41d"/>
      <path id="Path_189" data-name="Path 189" d="M12.857,185.1q-2.492,1.687-3.784,2.622-.433.319-.7.5a4.339,4.339,0,0,1-.718.365,2.187,2.187,0,0,1-.836.186H6.8a2.188,2.188,0,0,1-.836-.186,4.341,4.341,0,0,1-.718-.365q-.27-.178-.7-.5Q3.518,186.967.768,185.1A4.025,4.025,0,0,1,0,184.437v6.033a1.17,1.17,0,0,0,.357.859,1.17,1.17,0,0,0,.859.357H12.4a1.219,1.219,0,0,0,1.216-1.216v-6.033A4.191,4.191,0,0,1,12.857,185.1Z" transform="translate(0 -180.987)" fill="#ffc41d"/>
    </g>
  </g>
</svg>
