<svg xmlns="http://www.w3.org/2000/svg" width="30" height="30" viewBox="0 0 30 30">
  <g id="facebook_2_" data-name="facebook (2)" transform="translate(0)">
    <path id="Path_1169" data-name="Path 1169" d="M28.344,0H1.654A1.656,1.656,0,0,0,0,1.656V28.345A1.656,1.656,0,0,0,1.656,30H28.344A1.656,1.656,0,0,0,30,28.345h0V1.655A1.656,1.656,0,0,0,28.344,0Zm0,0" transform="translate(0 0)" fill="#4267b2"/>
    <path id="Path_1170" data-name="Path 1170" d="M215.808,103.459v-11.9h4.013l.6-4.66h-4.615V83.927c0-1.346.374-2.263,2.3-2.263h2.446V77.507a32.882,32.882,0,0,0-3.585-.183c-3.547,0-5.975,2.164-5.975,6.141v3.429h-4v4.66h4v11.9Zm0,0" transform="translate(-195.121 -73.459)" fill="#fff"/>
  </g>
</svg>
