<svg id="global" xmlns="http://www.w3.org/2000/svg" width="18" height="18" viewBox="0 0 18 18">
  <g id="Group_902" data-name="Group 902" transform="translate(0 9.527)">
    <g id="Group_901" data-name="Group 901">
      <path id="Path_169" data-name="Path 169" d="M3.181,271H0a9.1,9.1,0,0,0,.8,3.2H3.632A15.531,15.531,0,0,1,3.181,271Z" transform="translate(0 -271)" fill="#fff"/>
    </g>
  </g>
  <g id="Group_904" data-name="Group 904" transform="translate(4.235 9.527)">
    <g id="Group_903" data-name="Group 903">
      <path id="Path_170" data-name="Path 170" d="M120.449,271a15,15,0,0,0,.475,3.2h3.763V271Z" transform="translate(-120.449 -271)" fill="#fff"/>
    </g>
  </g>
  <g id="Group_906" data-name="Group 906" transform="translate(0 5.273)">
    <g id="Group_905" data-name="Group 905">
      <path id="Path_171" data-name="Path 171" d="M.8,150a9.1,9.1,0,0,0-.8,3.2H3.181a15.531,15.531,0,0,1,.451-3.2Z" transform="translate(0 -150)" fill="#fff"/>
    </g>
  </g>
  <g id="Group_908" data-name="Group 908" transform="translate(9.527 5.273)">
    <g id="Group_907" data-name="Group 907">
      <path id="Path_172" data-name="Path 172" d="M274.763,150H271v3.2h4.238A15,15,0,0,0,274.763,150Z" transform="translate(-271 -150)" fill="#fff"/>
    </g>
  </g>
  <g id="Group_910" data-name="Group 910" transform="translate(9.527)">
    <g id="Group_909" data-name="Group 909">
      <path id="Path_173" data-name="Path 173" d="M271,0V4.219h3.445C273.684,2.065,272.418.337,271,0Z" transform="translate(-271)" fill="#fff"/>
    </g>
  </g>
  <g id="Group_912" data-name="Group 912" transform="translate(5.028 13.781)">
    <g id="Group_911" data-name="Group 911">
      <path id="Path_174" data-name="Path 174" d="M143.02,392c.76,2.154,2.027,3.881,3.445,4.219V392Z" transform="translate(-143.02 -392)" fill="#fff"/>
    </g>
  </g>
  <g id="Group_914" data-name="Group 914" transform="translate(4.235 5.273)">
    <g id="Group_913" data-name="Group 913">
      <path id="Path_175" data-name="Path 175" d="M120.924,150a15,15,0,0,0-.475,3.2h4.238V150Z" transform="translate(-120.449 -150)" fill="#fff"/>
    </g>
  </g>
  <g id="Group_916" data-name="Group 916" transform="translate(5.028)">
    <g id="Group_915" data-name="Group 915">
      <path id="Path_176" data-name="Path 176" d="M143.02,4.219h3.445V0C145.047.337,143.78,2.065,143.02,4.219Z" transform="translate(-143.02)" fill="#fff"/>
    </g>
  </g>
  <g id="Group_918" data-name="Group 918" transform="translate(1.373 0.454)">
    <g id="Group_917" data-name="Group 917">
      <path id="Path_177" data-name="Path 177" d="M39.062,16.679h2.573a11.025,11.025,0,0,1,2.036-3.765A9.12,9.12,0,0,0,39.062,16.679Z" transform="translate(-39.062 -12.914)" fill="#fff"/>
    </g>
  </g>
  <g id="Group_920" data-name="Group 920" transform="translate(12.017 0.454)">
    <g id="Group_919" data-name="Group 919">
      <path id="Path_178" data-name="Path 178" d="M341.831,12.914a11.026,11.026,0,0,1,2.036,3.765h2.573A9.12,9.12,0,0,0,341.831,12.914Z" transform="translate(-341.831 -12.914)" fill="#fff"/>
    </g>
  </g>
  <g id="Group_922" data-name="Group 922" transform="translate(9.527 13.781)">
    <g id="Group_921" data-name="Group 921">
      <path id="Path_179" data-name="Path 179" d="M271,392v4.219c1.418-.337,2.684-2.065,3.445-4.219Z" transform="translate(-271 -392)" fill="#fff"/>
    </g>
  </g>
  <g id="Group_924" data-name="Group 924" transform="translate(12.017 13.781)">
    <g id="Group_923" data-name="Group 923">
      <path id="Path_180" data-name="Path 180" d="M343.867,392a11.025,11.025,0,0,1-2.036,3.765A9.121,9.121,0,0,0,346.44,392Z" transform="translate(-341.831 -392)" fill="#fff"/>
    </g>
  </g>
  <g id="Group_926" data-name="Group 926" transform="translate(1.373 13.781)">
    <g id="Group_925" data-name="Group 925">
      <path id="Path_181" data-name="Path 181" d="M41.635,392H39.062a9.121,9.121,0,0,0,4.609,3.765A11.026,11.026,0,0,1,41.635,392Z" transform="translate(-39.062 -392)" fill="#fff"/>
    </g>
  </g>
  <g id="Group_928" data-name="Group 928" transform="translate(9.527 9.527)">
    <g id="Group_927" data-name="Group 927">
      <path id="Path_182" data-name="Path 182" d="M271,271v3.2h3.763a15,15,0,0,0,.475-3.2Z" transform="translate(-271 -271)" fill="#fff"/>
    </g>
  </g>
  <g id="Group_930" data-name="Group 930" transform="translate(14.368 9.527)">
    <g id="Group_929" data-name="Group 929">
      <path id="Path_183" data-name="Path 183" d="M409.138,271a15.532,15.532,0,0,1-.451,3.2h2.827a9.1,9.1,0,0,0,.8-3.2Z" transform="translate(-408.687 -271)" fill="#fff"/>
    </g>
  </g>
  <g id="Group_932" data-name="Group 932" transform="translate(14.368 5.273)">
    <g id="Group_931" data-name="Group 931">
      <path id="Path_184" data-name="Path 184" d="M411.514,150h-2.827a15.532,15.532,0,0,1,.451,3.2h3.181A9.1,9.1,0,0,0,411.514,150Z" transform="translate(-408.687 -150)" fill="#fff"/>
    </g>
  </g>
</svg>
