<svg xmlns="http://www.w3.org/2000/svg" width="15.954" height="18.408" viewBox="0 0 15.954 18.408">
  <g id="Group_1462" data-name="Group 1462" transform="translate(0)">
    <path id="Path_4392" data-name="Path 4392" d="M10.308,0a8.039,8.039,0,0,1,8.1,7.977,8.039,8.039,0,0,1-8.1,7.977.373.373,0,1,1,0-.746,7.293,7.293,0,0,0,7.354-7.231A7.293,7.293,0,0,0,10.308.746,7.293,7.293,0,0,0,2.954,7.977a.373.373,0,0,1-.373.373h-1.5l1.5,2.2,1.55-2.2h-1.8V7.6H4.855a.373.373,0,0,1,.3.588L2.886,11.418a.373.373,0,0,1-.613,0L.066,8.188A.373.373,0,0,1,.374,7.6H2.217A8.046,8.046,0,0,1,10.308,0Z" transform="translate(15.954 0) rotate(90)" fill="#fff"/>
    <path id="Path_4393" data-name="Path 4393" d="M35.746,41.746v.746h6.219v-.746ZM35,41h7.711v2.239H35Z" transform="translate(-31.11 -33.662)" fill="#fff"/>
    <path id="Path_4394" data-name="Path 4394" d="M36.746,47.746v3.482h5.721V47.746ZM36.5,47h6.219a.5.5,0,0,1,.5.5v3.98a.5.5,0,0,1-.5.5H36.5a.5.5,0,0,1-.5-.5V47.5A.5.5,0,0,1,36.5,47Z" transform="translate(-31.861 -38.169)" fill="#fff"/>
  </g>
</svg>
