<svg xmlns="http://www.w3.org/2000/svg" width="30" height="30" viewBox="0 0 30 30">
  <g id="Group_3999" data-name="Group 3999" transform="translate(-1343 -4303)">
    <g id="Group_3998" data-name="Group 3998" transform="translate(39 -1)">
      <rect id="Rectangle_1665" data-name="Rectangle 1665" width="30" height="30" rx="1" transform="translate(1304 4304)" fill="#dd4b39"/>
    </g>
    <g id="youtube_2_" data-name="youtube (2)" transform="translate(1350.255 4232.675)">
      <g id="Group_3996" data-name="Group 3996" transform="translate(0 80)">
        <path id="Path_1172" data-name="Path 1172" d="M14.832,81.026c-.42-.747-.876-.885-1.8-.937S9.767,80,7.747,80s-4.358.026-5.284.088-1.383.19-1.807.938S0,83.058,0,85.322v.008c0,2.254.223,3.549.655,4.288s.88.883,1.807.946,3.261.086,5.285.086,4.353-.032,5.281-.085,1.384-.2,1.8-.946c.437-.739.657-2.034.657-4.288v-.008C15.49,83.058,15.269,81.773,14.832,81.026Zm-9.023,7.2V82.42l4.841,2.9Z" transform="translate(0 -80)" fill="#fff"/>
      </g>
    </g>
  </g>
</svg>
