<svg xmlns="http://www.w3.org/2000/svg" width="30" height="30" viewBox="0 0 30 30">
  <g id="Group_3997" data-name="Group 3997" transform="translate(-1304 -4304)">
    <rect id="Rectangle_1665" data-name="Rectangle 1665" width="30" height="30" rx="1" transform="translate(1304 4304)" fill="#dd4b39"/>
    <path id="Subtraction_1" data-name="Subtraction 1" d="M11.311,21.758a6.678,6.678,0,1,1,0-13.357A6.376,6.376,0,0,1,15.8,10.144L13.88,12.06a3.523,3.523,0,0,0-2.569-1A4.031,4.031,0,0,0,7.38,15.08a3.955,3.955,0,0,0,3.931,3.97,3.36,3.36,0,0,0,3.6-2.641h-3.6V13.726H17.63a7.889,7.889,0,0,1,.114,1.354,9.034,9.034,0,0,1-.1,1.329A6.039,6.039,0,0,1,11.311,21.758Zm12.015-3.842H21.664V15.577h-2.34V13.914h2.34V11.573h1.662v2.341h2.34v1.663h-2.34v2.338Z" transform="translate(1303.73 4303.73)" fill="#fff"/>
  </g>
</svg>
