<svg xmlns="http://www.w3.org/2000/svg" width="36.64" height="32.598" viewBox="0 0 36.64 32.598">
  <path id="heart" d="M18.32,32.6a2.149,2.149,0,0,1-1.416-.532c-1.48-1.294-2.907-2.511-4.166-3.583l-.006-.006a77.482,77.482,0,0,1-9.1-8.538C1.155,16.946,0,14.11,0,11.011A11.452,11.452,0,0,1,2.907,3.19,9.853,9.853,0,0,1,10.236,0a9.216,9.216,0,0,1,5.757,1.987,11.778,11.778,0,0,1,2.327,2.43,11.779,11.779,0,0,1,2.328-2.43A9.216,9.216,0,0,1,26.4,0a9.853,9.853,0,0,1,7.329,3.19,11.452,11.452,0,0,1,2.906,7.821c0,3.1-1.154,5.935-3.634,8.926a77.474,77.474,0,0,1-9.1,8.538c-1.261,1.075-2.691,2.293-4.174,3.59a2.15,2.15,0,0,1-1.416.532ZM10.236,2.146a7.73,7.73,0,0,0-5.751,2.5,9.316,9.316,0,0,0-2.338,6.366c0,2.606.969,4.937,3.14,7.557a76.248,76.248,0,0,0,8.836,8.274l.007.006c1.264,1.077,2.7,2.3,4.187,3.6,1.5-1.306,2.935-2.529,4.2-3.608a76.267,76.267,0,0,0,8.836-8.274c2.171-2.62,3.14-4.951,3.14-7.557a9.316,9.316,0,0,0-2.338-6.366,7.729,7.729,0,0,0-5.751-2.5A7.118,7.118,0,0,0,21.96,3.685a10.415,10.415,0,0,0-2.477,2.866,1.355,1.355,0,0,1-2.327,0,10.405,10.405,0,0,0-2.477-2.866,7.118,7.118,0,0,0-4.444-1.539Zm0,0" transform="translate(0 0)" fill="#6b6b6b"/>
</svg>
