<svg xmlns="http://www.w3.org/2000/svg" width="16.682" height="16.682" viewBox="0 0 16.682 16.682">
  <g id="noun_pay_3007927" transform="translate(-186.129 -85.129)">
    <path id="Path_4395" data-name="Path 4395" d="M20.256,35.942l-3.82.856a1.158,1.158,0,0,0-.994-1.417,25.266,25.266,0,0,1-3.422-.8c-.395-.11-.778-.218-1.14-.312a3.411,3.411,0,0,0-2.893.747v-.271a.334.334,0,0,0-.334-.334H5.334A.334.334,0,0,0,5,34.746v6.047a.334.334,0,0,0,.334.334h2.32a.334.334,0,0,0,.334-.334v-.432l4.675.711a4.736,4.736,0,0,0,2.667-.366l5.664-2.556a1.17,1.17,0,0,0-.737-2.208ZM7.32,40.46H5.667V35.08H7.32v5.38Zm13.4-2.918L15.055,40.1a4.061,4.061,0,0,1-2.292.315l-4.776-.727V35.9a3.123,3.123,0,0,1,2.723-.981c.358.094.738.2,1.129.31a25.676,25.676,0,0,0,3.52.817.5.5,0,0,1-.062,1H12.575a.334.334,0,0,0,0,.667H15.3a1.167,1.167,0,0,0,.241-.026h0L20.4,36.593a.5.5,0,0,1,.317.949Z" transform="translate(181.129 60.683)" fill="#fff"/>
    <path id="Path_4396" data-name="Path 4396" d="M33.233,5a4.358,4.358,0,1,0,4.358,4.358A4.363,4.363,0,0,0,33.233,5Zm0,8.049a3.691,3.691,0,1,1,3.691-3.691A3.7,3.7,0,0,1,33.233,13.049Z" transform="translate(165.219 80.129)" fill="#fff"/>
    <path id="Path_4397" data-name="Path 4397" d="M39.333,11.187a.245.245,0,0,1,.244.244.334.334,0,0,0,.667,0,.913.913,0,0,0-.912-.912H38.88v-.292a.334.334,0,1,0-.667,0v.292H37.76a.913.913,0,0,0-.911.912v.61a.913.913,0,0,0,.911.912h.453v1.1H37.76a.244.244,0,0,1-.244-.244.334.334,0,0,0-.667,0,.913.913,0,0,0,.911.912h.453v.292a.334.334,0,1,0,.667,0v-.292h.453a.913.913,0,0,0,.912-.912V13.2a.913.913,0,0,0-.912-.911H38.88v-1.1h.453Zm0,1.766a.244.244,0,0,1,.244.244v.61a.245.245,0,0,1-.244.244H38.88v-1.1Zm-1.12-.667H37.76a.244.244,0,0,1-.244-.244v-.61a.244.244,0,0,1,.244-.244h.453Z" transform="translate(159.906 76.868)" fill="#fff"/>
  </g>
</svg>
