<svg xmlns="http://www.w3.org/2000/svg" width="15.887" height="15.839" viewBox="0 0 15.887 15.839">
  <g id="noun_delivery_3122600" transform="translate(-1 -1.066)">
    <path id="Path_4390" data-name="Path 4390" d="M14.679,11.357a.53.53,0,0,0-.44-.238H11.062V9.53a.53.53,0,0,0-.53-.53h-9A.53.53,0,0,0,1,9.53v9.532a.53.53,0,0,0,.53.53H2.684a1.589,1.589,0,0,0,2.987,0h6.545a1.589,1.589,0,0,0,2.987,0h1.154a.53.53,0,0,0,.53-.53V14.825a.53.53,0,0,0-.09-.291Zm-.725.821L15.367,14.3H11.062V12.177ZM2.059,10.059H10v8.473H5.676a.529.529,0,0,1,0-.053.108.108,0,0,0-.042-.085,1.716,1.716,0,0,0-.09-.169L5.5,18.146a1.589,1.589,0,0,0-.148-.175l-.032-.037a2.182,2.182,0,0,0-.212-.175l-.069-.042a1.17,1.17,0,0,0-.18-.1l-.085-.037a1.2,1.2,0,0,0-.2-.058H4.49a1.35,1.35,0,0,0-.583,0H3.823a1.2,1.2,0,0,0-.2.058l-.085.037a1.17,1.17,0,0,0-.18.1l-.069.042a2.182,2.182,0,0,0-.212.175l-.032.037a1.589,1.589,0,0,0-.148.175l-.048.079a1.715,1.715,0,0,0-.09.169.085.085,0,0,1-.042.085q0,.026,0,.053H2.059Zm2.118,9.532a.53.53,0,1,1,.53-.53A.53.53,0,0,1,4.177,19.591Zm9.532,0a.53.53,0,1,1,.53-.53A.53.53,0,0,1,13.709,19.591Zm2.118-1.059h-.62q0-.026,0-.053l-.042-.085a1.715,1.715,0,0,0-.09-.169l-.048-.079a1.588,1.588,0,0,0-.148-.175l-.032-.037a2.182,2.182,0,0,0-.212-.175l-.069-.042a1.17,1.17,0,0,0-.18-.1l-.085-.037a1.2,1.2,0,0,0-.2-.058h-.085a1.35,1.35,0,0,0-.583,0h-.085a1.2,1.2,0,0,0-.2.058l-.085.037a1.17,1.17,0,0,0-.18.1l-.069.042a2.182,2.182,0,0,0-.212.175l-.032.037a1.589,1.589,0,0,0-.148.175l-.048.079a1.716,1.716,0,0,0-.09.169l-.042.085q0,.026,0,.053H11.062V15.355h4.766Z" transform="translate(0 -3.732)" fill="#fff"/>
    <path id="Path_4391" data-name="Path 4391" d="M13.852,4.738h0a.53.53,0,0,0,.4-.2l2.118-2.648a.53.53,0,0,0-.826-.657L13.852,3.377l-.36-.418a.53.53,0,0,0-.8.688l.778.906A.53.53,0,0,0,13.852,4.738Z" transform="translate(-5.438)" fill="#fff"/>
  </g>
</svg>
