<svg xmlns="http://www.w3.org/2000/svg" width="14.727" height="18.647" viewBox="0 0 14.727 18.647">
  <g id="noun_Login_1155274" transform="translate(-26 -19.61)">
    <path id="Path_1094" data-name="Path 1094" d="M54.865,19.61H51.3a.92.92,0,1,0,0,1.841h3.565a.92.92,0,0,1,.92.92V35.5a.92.92,0,0,1-.92.92H51.3a.92.92,0,1,0,0,1.841h3.565A2.761,2.761,0,0,0,57.627,35.5V22.371A2.761,2.761,0,0,0,54.865,19.61Z" transform="translate(-16.9)" fill="#fff"/>
    <path id="Path_1095" data-name="Path 1095" d="M26.92,39.3h6.259L30.7,41.978a.92.92,0,0,0,1.35,1.252L35.977,39c.015-.018.028-.037.043-.055s.037-.046.055-.071a.9.9,0,0,0,.046-.083c0-.025.025-.046.037-.074a.921.921,0,0,0,.031-.1.1.1,0,0,1,.018-.067.92.92,0,0,0,.018-.172h0a.92.92,0,0,0-.018-.172.091.091,0,0,0-.018-.067.921.921,0,0,0-.031-.1c0-.025-.025-.049-.037-.074a.9.9,0,0,0-.046-.083c-.015-.025-.037-.046-.055-.071a.5.5,0,0,0-.043-.055l-3.915-4.215a.92.92,0,0,0-1.35,1.252l2.479,2.675H26.92a.92.92,0,1,0,0,1.841Z" transform="translate(0 -9.448)" fill="#fff"/>
  </g>
</svg>
