<svg xmlns="http://www.w3.org/2000/svg" width="9.573" height="14.36" viewBox="0 0 9.573 14.36">
  <g id="noun_Mobile_3350409" transform="translate(-4)">
    <path id="Path_4411" data-name="Path 4411" d="M11.922,0H5.651A1.657,1.657,0,0,0,4,1.651V12.709A1.657,1.657,0,0,0,5.651,14.36h6.271a1.657,1.657,0,0,0,1.651-1.651V1.651A1.657,1.657,0,0,0,11.922,0ZM5.651,1.2h6.271a.455.455,0,0,1,.455.455v8.52H5.2V1.651A.455.455,0,0,1,5.651,1.2Zm6.271,11.967H5.651a.455.455,0,0,1-.455-.455v-1.34h7.18v1.34A.455.455,0,0,1,11.922,13.163Z" fill="#ffc41d"/>
    <circle id="Ellipse_62" data-name="Ellipse 62" cx="0.598" cy="0.598" r="0.598" transform="translate(8.188 11.668)" fill="#ffc41d"/>
    <path id="Path_4412" data-name="Path 4412" d="M9.6,4.2h2.393a.6.6,0,0,0,0-1.2H9.6a.6.6,0,1,0,0,1.2Z" transform="translate(-2.008 -1.205)" fill="#ffc41d"/>
  </g>
</svg>
