<svg id="noun_Trolley_2432410" xmlns="http://www.w3.org/2000/svg" width="35.892" height="34.349" viewBox="0 0 35.892 34.349">
  <g id="Group_1083" data-name="Group 1083" transform="translate(0)">
    <path id="Path_1138" data-name="Path 1138" d="M103.906,265A3.848,3.848,0,0,0,100,268.906a3.856,3.856,0,1,0,7.711,0A3.827,3.827,0,0,0,103.906,265Zm0,6.109a2.254,2.254,0,1,1,2.2-2.2A2.223,2.223,0,0,1,103.906,271.109Z" transform="translate(-89.961 -238.462)" fill="#6b6b6b" fill-rule="evenodd"/>
    <path id="Path_1139" data-name="Path 1139" d="M34.825,5.308H7.486A6.708,6.708,0,0,0,.576,0a.8.8,0,1,0,0,1.6A5.28,5.28,0,0,1,5.884,5.908l2.7,15.723a4.823,4.823,0,0,0,4.707,4.006H29.618a.852.852,0,0,0,0-1.7H13.294a2.955,2.955,0,0,1-3.1-2.5l-.2-1.1H28.016a4.818,4.818,0,0,0,4.707-3.705l2.9-10.115A1.039,1.039,0,0,0,34.825,5.308ZM31.22,16.323a3.335,3.335,0,0,1-3.2,2.4H9.689c-.7-4.206-1.4-8.012-2-11.817H33.724C32.923,10.014,32.122,12.818,31.22,16.323Z" transform="translate(0.25 0)" fill="#6b6b6b" fill-rule="evenodd"/>
    <path id="Path_1140" data-name="Path 1140" d="M217.805,265A3.827,3.827,0,0,0,214,268.906a3.856,3.856,0,1,0,7.711,0A3.848,3.848,0,0,0,217.805,265Zm0,6.109a2.223,2.223,0,0,1-2.2-2.2,2.254,2.254,0,1,1,2.2,2.2Z" transform="translate(-192.544 -238.462)" fill="#6b6b6b" fill-rule="evenodd"/>
  </g>
</svg>
