<svg id="refresh" xmlns="http://www.w3.org/2000/svg" width="23.097" height="23.698" viewBox="0 0 23.097 23.698">
  <path id="Path_1129" data-name="Path 1129" d="M21.774,233.124A2.475,2.475,0,0,1,19.3,235.6H3.143L6.4,232.34l-1.166-1.166L.568,235.84a.825.825,0,0,0,0,1.166l4.667,4.666L6.4,240.507l-3.258-3.258H19.3a4.13,4.13,0,0,0,4.125-4.125v-3.3h-1.65Zm0,0" transform="translate(-0.327 -217.975)" fill="#707070"/>
  <path id="Path_1130" data-name="Path 1130" d="M1.974,8.549A2.475,2.475,0,0,1,4.449,6.074H20.605L17.347,9.333,18.514,10.5,23.18,5.833a.825.825,0,0,0,0-1.166L18.514,0,17.347,1.166l3.258,3.258H4.449A4.129,4.129,0,0,0,.324,8.549v3.3h1.65Zm0,0" transform="translate(-0.324 0)" fill="#707070"/>
</svg>
