<svg id="twitter_2_" data-name="twitter (2)" xmlns="http://www.w3.org/2000/svg" width="30" height="30" viewBox="0 0 30 30">
  <rect id="Rectangle_1664" data-name="Rectangle 1664" width="30" height="30" rx="1" fill="#50abf1"/>
  <path id="Path_1171" data-name="Path 1171" d="M60.359,111.58a12.78,12.78,0,0,0,19.567-10.657q0-.261-.01-.518a9.963,9.963,0,0,0,2.216-2.249,10.434,10.434,0,0,1-2.531.65h-.008l.007,0a4.7,4.7,0,0,0,1.947-2.456,15.628,15.628,0,0,1-2.172.9c-.21.069-.429.137-.656.2a4.485,4.485,0,0,0-7.74,3.022,4.367,4.367,0,0,0,.116,1,13.541,13.541,0,0,1-9.183-4.59s-2.138,2.887,1.274,5.855a4.637,4.637,0,0,1-1.933-.57,4.206,4.206,0,0,0,3.536,4.391,4.138,4.138,0,0,1-1.974.082,4.394,4.394,0,0,0,4.112,3.09,8.654,8.654,0,0,1-6.57,1.856Z" transform="translate(-56.245 -89.497)" fill="#fff"/>
</svg>
