<svg xmlns="http://www.w3.org/2000/svg" width="13.125" height="15" viewBox="0 0 13.125 15">
  <path id="user-regular" d="M9.188,8.906c-.841,0-1.245.469-2.625.469s-1.781-.469-2.625-.469A3.939,3.939,0,0,0,0,12.844v.75A1.407,1.407,0,0,0,1.406,15H11.719a1.407,1.407,0,0,0,1.406-1.406v-.75A3.939,3.939,0,0,0,9.188,8.906Zm2.531,4.688H1.406v-.75a2.536,2.536,0,0,1,2.531-2.531,11.471,11.471,0,0,0,2.625.469,11.36,11.36,0,0,0,2.625-.469,2.536,2.536,0,0,1,2.531,2.531ZM6.563,8.438A4.219,4.219,0,1,0,2.344,4.219,4.22,4.22,0,0,0,6.563,8.438Zm0-7.031A2.813,2.813,0,1,1,3.75,4.219,2.817,2.817,0,0,1,6.563,1.406Z" fill="#fff"/>
</svg>
